<svg width="15" height="10" viewBox="0 0 15 10" fill="none" xmlns="http://www.w3.org/2000/svg">
<path d="M14.5512 0.293946C14.2961 0.0831182 13.968 -0.0183742 13.6384 0.0115787C13.3087 0.0415315 13.0043 0.200502 12.7914 0.45386L7.50212 6.79838L2.21289 0.45386C2.10808 0.326929 1.9792 0.221961 1.83367 0.144989C1.68814 0.0680177 1.52883 0.0205614 1.3649 0.00534736C1.20096 -0.00986666 1.03564 0.00746171 0.878423 0.0563369C0.721209 0.105212 0.575208 0.18467 0.448811 0.290143C0.322414 0.395617 0.218114 0.525026 0.141906 0.670931C0.0656982 0.816837 0.0190855 0.976363 0.00474721 1.14034C-0.00959108 1.30431 0.00862785 1.46951 0.0583567 1.62642C0.108085 1.78333 0.188343 1.92887 0.294518 2.05467L6.54304 9.55108C6.66026 9.69159 6.80693 9.80464 6.97268 9.88222C7.13843 9.95979 7.31921 10 7.50223 10C7.68524 10 7.86602 9.95979 8.03177 9.88222C8.19752 9.80464 8.3442 9.69159 8.46142 9.55108L14.7099 2.05467C14.9222 1.80004 15.0247 1.47161 14.9949 1.14148C14.9652 0.811358 14.8056 0.506533 14.5512 0.293946V0.293946Z" fill="white"/>
</svg>
