<svg width="30" height="30" viewBox="0 0 30 30" fill="none" xmlns="http://www.w3.org/2000/svg">
<path fill-rule="evenodd" clip-rule="evenodd" d="M15 30C23.2843 30 30 23.2843 30 15C30 6.7157 23.2843 0 15 0C6.7157 0 0 6.7157 0 15C0 23.2843 6.7157 30 15 30ZM18.6426 7.6886C17.6963 7.646 17.4114 7.63538 15.0052 7.63538C12.5992 7.63538 12.3143 7.646 11.368 7.6886C10.4921 7.72766 10.0137 7.87659 9.69708 8.00073C9.2785 8.16748 8.97949 8.36267 8.6629 8.68188C8.34979 8.99768 8.15283 9.30273 7.99103 9.72485C7.86792 10.0442 7.72015 10.5231 7.68146 11.4099C7.63922 12.3643 7.62866 12.6552 7.62866 15.078C7.62866 17.501 7.63922 17.7883 7.68146 18.7462C7.72015 19.6295 7.86792 20.1119 7.99103 20.4313C8.15637 20.8534 8.34979 21.1549 8.66638 21.4741C8.97949 21.7899 9.28198 21.9885 9.70062 22.1517C10.0172 22.2759 10.4921 22.4249 11.3715 22.464C12.3177 22.5065 12.6062 22.5171 15.0088 22.5171C17.4114 22.5171 17.6963 22.5065 18.6461 22.464C19.522 22.4249 20.0004 22.2759 20.317 22.1517C20.7356 21.985 21.0346 21.7899 21.3512 21.4706C21.6642 21.1549 21.8613 20.8499 22.0231 20.4276C22.1462 20.1084 22.2939 19.6295 22.3326 18.7426C22.3748 17.7883 22.3854 17.4974 22.3854 15.0745C22.3854 12.6516 22.3748 12.3643 22.3326 11.4064C22.2939 10.5231 22.1462 10.0406 22.0231 9.72131C21.8577 9.29919 21.6642 8.99768 21.3477 8.67834C21.0346 8.36267 20.7321 8.16394 20.3135 8.00073C19.9969 7.87659 19.522 7.72766 18.6426 7.6886ZM11.2941 6.05322C12.2545 6.01062 12.5605 6 15.0052 6C17.4501 6 17.7561 6.01062 18.72 6.05676C19.6768 6.09937 20.3311 6.25537 20.9044 6.47888C21.4954 6.70947 21.9984 7.02173 22.4979 7.52539C23.001 8.02917 23.307 8.5365 23.5286 9.13953C23.7502 9.71423 23.905 10.3776 23.9473 11.3425C23.9894 12.311 24 12.6196 24 15.0851C24 17.5507 23.9894 17.8593 23.9473 18.8278C23.905 19.7927 23.7502 20.4525 23.5286 21.0308C23.3 21.6267 22.9904 22.134 22.4909 22.6378C21.9914 23.1415 21.4883 23.4537 20.8974 23.6843C20.3275 23.9077 19.6697 24.0638 18.7129 24.1064C17.7526 24.149 17.4465 24.1597 15.0018 24.1597C12.5569 24.1597 12.2509 24.149 11.2906 24.1064C10.3338 24.0638 9.6795 23.9077 9.10614 23.6843C8.51514 23.4537 8.01215 23.1415 7.51263 22.6378C7.00958 22.134 6.70355 21.6267 6.47137 21.0272C6.24976 20.4525 6.09497 19.7891 6.0528 18.8242C6.01056 17.8557 6 17.5471 6 15.0815C6 12.6161 6.01056 12.3075 6.0528 11.3354C6.09497 10.3705 6.24976 9.71069 6.47137 9.13245C6.70355 8.5365 7.00958 8.02917 7.51263 7.52539C8.01215 7.01819 8.51514 6.70947 9.10962 6.47534C9.6795 6.25183 10.3373 6.09583 11.2941 6.05322ZM15.0053 10.4165C12.4515 10.4165 10.3796 12.506 10.3796 15.0814C10.3796 17.657 12.4515 19.7465 15.0053 19.7465C17.5591 19.7465 19.6311 17.657 19.6311 15.0814C19.6311 12.506 17.5591 10.4165 15.0053 10.4165ZM15.0053 18.1075C13.3485 18.1075 12.0048 16.7523 12.0048 15.0814C12.0048 13.4106 13.3485 12.0554 15.0053 12.0554C16.6622 12.0554 18.0059 13.4106 18.0059 15.0814C18.0059 16.7523 16.6622 18.1075 15.0053 18.1075ZM19.8139 11.3212C20.4103 11.3212 20.8938 10.8335 20.8938 10.2321C20.8938 9.63062 20.4103 9.14294 19.8139 9.14294C19.2175 9.14294 18.7339 9.63062 18.7339 10.2321C18.7339 10.8335 19.2175 11.3212 19.8139 11.3212Z" fill="white"/>
</svg>
