<svg width="30" height="30" viewBox="0 0 30 30" fill="none" xmlns="http://www.w3.org/2000/svg">
<path fill-rule="evenodd" clip-rule="evenodd" d="M30 15C30 6.71704 23.283 0 15 0C6.71698 0 0 6.71704 0 15C0 23.283 6.71698 30 15 30C23.283 30 30 23.283 30 15ZM22.467 11.673C22.467 16.7581 18.594 22.62 11.52 22.62V22.6171C9.43201 22.62 7.383 22.02 5.63098 20.889C5.93396 20.928 6.23999 20.946 6.54596 20.946C8.27698 20.949 9.95996 20.3671 11.322 19.296C9.67499 19.2631 8.23199 18.189 7.72797 16.623C8.30396 16.734 8.89801 16.7101 9.46497 16.557C7.66797 16.194 6.37799 14.616 6.37799 12.786V12.738C6.91199 13.035 7.51196 13.2001 8.12396 13.218C6.43201 12.087 5.91296 9.83997 6.93298 8.08203C8.88599 10.485 11.769 11.946 14.862 12.1021C14.553 10.767 14.976 9.36597 15.975 8.427C17.523 6.97205 19.959 7.047 21.417 8.59497C22.278 8.427 23.103 8.10901 23.859 7.66199C23.571 8.55298 22.971 9.30908 22.167 9.78906C22.929 9.69897 23.673 9.495 24.375 9.18298C23.859 9.95703 23.208 10.629 22.455 11.175C22.467 11.34 22.467 11.5081 22.467 11.673Z" fill="white"/>
</svg>
